<svg xmlns="http://www.w3.org/2000/svg" version="1.1" xmlns:xlink="http://www.w3.org/1999/xlink" viewBox="0 0 1066 800" style="overflow: hidden; display: block;" width="1066" height="800"><defs></defs><g id="two-0" transform="matrix(1 0 0 1 0 0)" opacity="1"></g><path d="M 12.07870666594618 778.5759370301466 Q 12.07870666594618 778.5759370301466 2.834100207542849 775.1455872139488 -6.410506250860482 771.7152373977511 -4.90511674355183 756.6513975470657 -3.3997272362431783 741.5875576963801 -0.9234583610866887 727.5080878583245 1.552810514069801 713.4286180202689 3.6187749686323993 701.3753977948013 5.684739423194998 689.3221775693336 7.664356201927724 677.5492849219002 9.64397298066045 665.7763922744667 11.650563835895742 652.8798984177151 13.657154691131034 639.9834045609635 15.884074734508713 627.6307856589583 18.110994777886393 615.2781667569529 21.17526767030987 600.8598693766078 24.239540562733346 586.4415719962627 27.747533049734635 571.5213340037203 31.255525536735924 556.6010960111779 34.61441378559566 543.4212369287391 37.9733020344554 530.2413778463002 41.28214228894085 517.6626737878241 44.59098254342629 505.0839697293481 48.20569939762868 491.0299160302069 51.82041625183107 476.9758623310657 55.67418591249677 463.22868102373127 59.52795557316247 449.4814997163969 63.83953144388958 435.86765336480266 68.15110731461668 422.25380701320836 72.86257466303934 410.0350710568074 77.574042011462 397.8163351004065 83.23196434953627 385.7770432052373 88.88988668761054 373.73775131006806 95.37163425745692 363.2962805772951 101.85338182730328 352.8548098445221 110.47918243605343 341.5354699250696 119.10498304480359 330.2161300056172 128.90650651660405 319.49322784068863 138.70802998840452 308.77032567576003 149.10974438523013 299.0229492557677 159.51145878205574 289.2755728357753 169.8263859043256 280.62408553678245 180.14131302659544 271.9725982377896 190.30729318360716 264.60704559202554 200.4732733406189 257.2414929462614 211.24682305666707 250.84398263527254 222.02037277271523 244.44647232428366 234.16077123386333 239.02638275917812 246.30116969501142 233.60629319407258 260.0407920473701 229.84272264168715 273.7804143997287 226.0791520893017 287.83204900859516 224.61277340661206 301.88368361746154 223.1463947239224 315.59052501092594 224.63724516023686 329.2973664043903 226.1280955965513 341.9105993848424 231.3267375572342 354.52383236529454 236.52537951791712 365.3862400831944 246.15235779241868 376.2486478010943 255.77933606692028 384.35870039316666 268.61713183943243 392.468752985239 281.45492761194464 397.9566000599182 294.8344269854236 403.44444713459734 308.21392635890254 407.5825775176787 324.0240610973656 411.72070790076003 339.83419583582855 413.79645164640726 352.089644407411 415.8721953920545 364.34509297899353 418.62721585957723 381.21019571253464 421.3822363271 398.07529844607575 424.0801551840558 413.12374579687355 426.7780740410116 428.17219314767135 429.54928164116427 440.44183337016966 432.3204892413169 452.7114735926679 437.2061156600638 466.5801259711262 442.0917420788106 480.44877834958453 451.0439841096437 492.9622954094599 459.9962261404767 505.4758124693352 472.33805785454945 512.4468932128714 484.6798895686222 519.4179739564074 499.44356762666723 521.367346441222 514.2072456847123 523.3167189260365 526.2978342575423 519.1347621791076 538.3884228303722 514.9528054321788 544.5369530252394 502.1349729102323 550.6854832201067 489.3171403882858 553.959721113583 474.1478278748341 557.2339590070593 458.97851536138234 558.0394593965157 442.65127575755275 558.8449597859722 426.3240361537231 557.8370698777155 409.2746110156522 556.829179969459 392.22518587758134 555.3397348150572 376.0458026886472 553.8502896606553 359.866419499713 552.7573471292555 346.3447533591851 551.6644045978558 332.8230872186572 551.5959083736323 319.9972646557823 551.5274121494086 307.17144209290745 554.4280054716678 293.73912538165854 557.3285987939271 280.3068086704096 563.6986227621935 267.27508165894375 570.06864673046 254.2433546474779 578.1122907424985 242.08553924154003 586.1559347545372 229.92772383560217 595.4598606038473 219.2594369470276 604.7637864531574 208.59115005845308 615.6436871680394 199.68809037063625 626.5235878829212 190.78503068281938 638.7349786754446 183.60177737329718 650.9463694679679 176.418524063775 664.3333511624644 169.15028688366476 677.7203328569609 161.88204970355454 690.8276859860107 153.79740023154417 703.9350391150606 145.7127507595338 715.1379423652743 138.26756756878316 726.3408456154879 130.82238437803252 737.418916861802 123.69934894950609 748.496988108116 116.57631352097965 755.9425268339091 126.18922896737547 763.3880655597023 135.8021444137713 751.7339347681996 133.39102901601785 740.0798039766967 130.97991361826445 725.5687589007617 130.18186638107017 711.0577138248268 129.38381914387585 697.4612109628952 130.16759860501367 683.8647081009635 130.9513780661515 671.0180387344647 132.66775734553627 658.1713693679657 134.38413662492104 647.1032238305345 136.52177893520627 636.0350782931034 138.65942124549153 633.5715924854676 138.69320644607308 631.1081066778319 138.7269916466546 628.7081242455847 138.1702259067722 626.3081418133377 137.61346016688984 624.1111498482043 136.49850273750502 621.9141578830709 135.3835453081202 620.0478456612898 133.77519756741486 618.1815334395087 132.1668498267095 616.7543711150984 130.1585890209413 615.3272087906879 128.1503282151731 614.4221431049978 125.85887455673102 613.5170774193076 123.56742089828894 613.1867108325143 121.12595378146514 612.8563442457212 118.68448666464134 613.1198776793715 116.23490427297745 613.3834111130219 113.78532188131356 614.22552799157 111.46999405850623 615.067644870118 109.1546662356989 616.4394013210159 107.1081599435949 617.8111577719138 105.06165365149089 619.6328272457837 103.40291193194197 621.4544967196535 101.74417021239306 623.6202037010833 100.56959921207508 625.785910682513 99.3950282117571 628.1697841799864 98.77289405239549 630.55365767746 98.1507598930339 644.3158001146678 98.16474720884028 658.0779425518756 98.17873452464667 672.6313517010251 98.27261872600874 687.1847608501747 98.36650292737083 699.579904786196 98.66316970014236 711.9750487222175 98.9598364729139 724.8678214924441 99.41179746431123 737.7605942626707 99.86375845570855 742.8817855883997 111.14402727598582 748.0029769141286 122.42429609626309 745.0989478157187 107.91824824857588 742.1949187173087 93.41220040088868 753.8237909373026 88.6211692103721 765.4526631572967 83.83013801985553 776.3564069369224 89.9944900999376 787.2601507165483 96.15884218001966 790.8327444811107 110.14545775015273 794.4053382456731 124.13207332028581 794.8748971121569 138.20479420798802 795.3444559786407 152.2775150956902 792.4391343772965 166.69914088583909 789.5338127759522 181.12076667598794 784.9267589909705 193.94127824140227 780.3197052059888 206.7617898068166 776.5331616122498 218.08543469589443 772.746618018511 229.40907958497226 770.1903844783044 241.10540908434746 767.6341509380978 252.80173858372265 767.13191701331 258.5430818970585 766.6296830885223 264.28442521039443 766.1408024569687 267.6038248979138 765.6519218254152 270.9232245854332 764.1287122190487 273.9127481348445 762.6055026126821 276.9022716842557 760.2074444793774 279.24891519077795 757.8093863460726 281.5955586973002 754.7875570054125 283.05362796634677 751.7657276647525 284.51169723539334 748.4365134463898 284.9285320296022 745.107299228027 285.34536682381105 741.8192697394513 284.67732443019474 738.5312402508756 284.0092820365785 735.6286530474963 282.3263066700948 732.726065844117 280.6433313036112 730.5128225723365 278.1216309293933 728.2995793005562 275.59993055517543 727.0074071151695 272.5035278680682 725.7152349297828 269.407125180961 725.4794245997002 266.06021435967546 725.2436142696175 262.7133035383899 726.0888551986466 259.4663070294133 726.9340961276755 256.2193105204367 728.7718913674248 253.4121897153827 730.609686607174 250.60506891032873 733.247618510911 248.53173009849448 735.8855504146482 246.45839128666023 739.0474268157052 245.33591358895302 742.2093032167624 244.2134358912458 745.5640748212945 244.15934301892094 748.9188464258267 244.10525014659606 752.1152677612658 245.12520563766506 755.3116890967049 246.14516112873406 758.0150940054571 248.1323753740399 760.7184989142092 250.11958961934573 762.6458401886987 252.86600076283128 764.573181463188 255.61241190631682 765.5226659632068 258.830469976277 766.4721504632256 262.0485280462372 766.3443669109824 265.4013015132624 766.2165833587392 268.75407498028756 765.0249107258853 271.89052757733396 763.8332380930314 275.0269801743803 761.7024448187976 277.61872448659403 759.5716515445639 280.2104687988078 756.7248322472375 281.98614851254615 753.8780129499111 283.7618282262844 750.6132303614093 284.53552920678493 747.3484477729074 285.30923018728544 744.0075254920653 284.9999457376525 740.6666032112232 284.69066128801967 737.5993366827629 283.3307735717731 734.5320701543025 281.97088585552655 732.0596029934333 279.7027754755328 729.5871358325641 277.43466509553906 727.968336003697 274.4958038073065 726.3495361748301 271.5569425190739 725.7538924473693 268.2550298752645 725.1582487199083 264.95311723145505 725.1582988718103 264.95622758905597 725.1583490237123 264.95933794665694 726.1289158075365 254.31974281021846 727.0994825913607 243.68014767377997 730.14591792761 230.67445207319412 733.1923532638592 217.6687564726083 737.3943768985328 205.22898914646757 741.5964005332064 192.78922182032684 745.8550788110872 180.8479884982887 750.1137570889679 168.90675517625053 752.1066260111845 155.74236135927845 754.099494933401 142.57796754230637 760.6499951195251 131.24909521132258 767.2004953056492 119.92022288033877 771.1668259486172 106.44831357590263 775.1331565915852 92.97640427146648 781.1707004823422 103.42235079603796 787.2082443730991 113.86829732060943 781.7346045666911 124.92340774788961 776.2609647602831 135.9785181751698 763.3453334696283 138.49094604967678 750.4297021789736 141.0033739241838 737.4421859089233 140.1744352936866 724.454669638873 139.34549666318944 709.8233462269076 139.06939009364663 695.1920228149421 138.7932835241038 679.9672784329823 138.91315864822417 664.7425340510224 139.03303377234457 650.389818874889 138.84609037213158 636.0371036987555 138.6591469719186 633.5736212819572 138.69317852091154 631.1101388651589 138.72721006990452 628.7101007683378 138.1706843310488 626.3100626715168 137.61415859219306 624.1129592216255 136.49942086757918 621.9158557717343 135.3846831429653 620.049382724511 133.77652204152355 618.1829096772877 132.1683609400818 616.7555465339328 130.16024286058712 615.328183390578 128.15212478109243 614.4228885640478 125.86076164067603 613.5175937375175 123.56939850025964 613.1869830056648 121.1279644323018 612.8563722738122 118.68653036434395 613.1196607479061 116.23692163158465 613.382949222 113.78731289882535 614.2248345635555 111.47190087590694 615.0667199051112 109.15648885298853 616.4382716985215 107.10984539547218 617.8098234919318 105.06320193795584 619.6313270825216 103.40427805975355 621.4528306731114 101.74535418155128 623.6184201866126 100.57056661640836 625.784009700114 99.39577905126544 628.1678209722523 98.77340650766516 630.5516322443907 98.1510339640649 638.2524455040766 96.70616807097224 645.9532587637625 95.26130217787959 659.603136673686 93.33347701024917 673.2530145836095 91.40565184261875 686.2057367384414 90.5513089308213 699.1584588932733 89.69696601902385 712.3760758276478 89.58828505890548 725.5936927620222 89.4796040987871 737.4136723843476 90.81451765476481 749.2336520066731 92.1494312107425 760.9450489643807 94.92990288145648 772.6564459220883 97.71037455217045 781.9831377459684 105.09349548300959 791.3098295698485 112.47661641384873 783.9822818867144 128.76731341265716 776.6547342035805 145.05801041146557 765.0958237469977 151.75717615022307 753.536913290415 158.45634188898055 743.0757432659833 165.33803044956147 732.6145732415516 172.2197190101424 719.4497590994828 180.63348279557994 706.2849449574139 189.04724658101748 692.2791567931938 197.1900906564868 678.2733686289737 205.33293473195616 666.7580814555873 211.79045446582646 655.242794282201 218.24797419969676 643.7911874156277 226.7791818796601 632.3395805490544 235.31038955962345 622.2919971703017 247.18931592331705 612.2444137915489 259.06824228701066 605.6967828816555 269.7828758732378 599.149151971762 280.497509459465 594.6733089544623 292.03576267163567 590.1974659371626 303.57401588380634 589.5170893514079 317.00717636509125 588.8367127656531 330.4403368463762 589.6652215206263 343.5425560468268 590.4937302755995 356.64477524727744 591.966004373643 373.00143933434254 593.4382784716867 389.3581034214077 594.407754974706 401.73442384666373 595.3772314777252 414.1107442719198 595.680766181841 426.4085992726103 595.9843008859568 438.7064542733007 595.2011409567947 451.32515217015856 594.4179810276324 463.9438500670164 592.2635583319479 476.67752161230084 590.1091356362634 489.4111931575853 586.2518547897039 502.0306880625483 582.3945739431442 514.6501829675113 576.4354933580922 525.3358946499981 570.4764127730402 536.0216063324848 556.6247354536594 546.3237448453303 542.7730581342785 556.625883358176 528.3429207273989 559.0403476866686 513.9127833205192 561.4548120151613 497.6405518771959 559.794189972459 481.36832043387255 558.1335679297565 465.8655865831522 551.7517640284608 450.3628527324318 545.3699601271651 437.58865985036186 534.346388395508 424.81446696829187 523.322816663851 416.1503799466924 509.83305645825624 407.4862929250929 496.34329625266156 402.6949370616463 483.1717322584234 397.9035811981997 470.0001682641852 394.84898255046664 457.05761451573426 391.79438390273356 444.11506076728324 389.0185173072403 429.409080651031 386.24265071174705 414.70310053477874 383.46557852951344 398.4168605559841 380.6885063472799 382.13062057718946 377.42278367274224 365.0757596051035 374.1570609982046 348.02089863301745 370.57191572058605 334.87020507039733 366.98677044296744 321.71951150777716 360.676179264716 307.18853808653944 354.3655880864645 292.65756466530166 344.80763555219875 281.6320899386628 335.24968301793297 270.6066152120239 322.5977560267578 266.51961692543125 309.9458290355827 262.43261863883856 295.8855252114456 263.29398006752695 281.82522138730855 264.1553414962153 267.75296301980285 268.3691564639514 253.68070465229718 272.58297143168744 241.02124422194788 279.05878261928825 228.3617837915986 285.53459380688906 216.33118395264705 293.9408450151128 204.30058411369546 302.3470962233365 194.98003034251371 310.18563601727686 185.659476571332 318.0241758112172 176.2486796742279 326.96684542831053 166.8378827771238 335.9095150454038 158.3266681363255 345.4006970864997 149.8154534955272 354.89187912759553 140.4041816800296 367.93670359305486 130.992909864532 380.9815280585142 124.96431062515573 391.79156747080873 118.93571138577946 402.6016068831033 113.28406735859053 415.8912830904046 107.63242333140163 429.18095929770595 103.5009428517569 441.7459915510772 99.36946237211218 454.3110238044485 95.5367280067577 467.52470078943486 91.70399364140323 480.73837777442117 88.1690295135652 493.5779598666504 84.63406538572718 506.41754195887967 80.92668039947908 519.4371283836304 77.21929541323098 532.456714808381 74.04173914618664 544.4522216271434 70.86418287914232 556.4477284459059 67.60886309825301 570.7528060220835 64.35354331736369 585.0578835982611 61.40621139486916 599.2730177440692 58.45887947237463 613.4881518898771 55.62272152392775 629.6619234104544 52.786563575480876 645.8356949310315 50.65554451221881 658.9752808466467 48.524525448956744 672.1148667622618 46.3557136883183 683.9821916635467 44.18690192767986 695.8495165648316 41.829376296211365 708.2703108403039 39.471850664742874 720.691105115776 36.84735501370418 734.2718102441629 34.22285936266549 747.8525153725498 32.62653783491545 760.4525979717744 31.030216307165414 773.0526805709989 21.564455115104245 775.8146657157386 12.098693923043077 778.5766508604784 12.088700294494629 778.5762939453125 Z" fill="hsl(39, 100%, 89%)"></path></svg>