<svg xmlns="http://www.w3.org/2000/svg" version="1.1" xmlns:xlink="http://www.w3.org/1999/xlink" viewBox="0 0 1066 800" style="overflow: hidden; display: block;" width="1066" height="800"><defs></defs><g id="two-0" transform="matrix(1 0 0 1 0 0)" opacity="1"></g><path d="M 1033.4568890981693 5.581646121704762 Q 1033.4568890981693 5.581646121704762 1042.6991876529237 8.439505558560178 1051.941486207678 11.297364995415593 1051.8544772225714 23.85413392863333 1051.7674682374645 36.41090286185107 1051.0228450628213 49.37594486659488 1050.278221888178 62.340986871338686 1049.2262175638525 74.2857049594065 1048.1742132395268 86.2304230474743 1047.1727961886559 98.39927964019176 1046.1713791377852 110.56813623290923 1045.0801470770584 123.93423648717305 1043.988915016332 137.30033674143687 1042.2932863669666 151.01277824189458 1040.5976577176014 164.72521974235232 1038.8209153343337 178.25372144322205 1037.0441729510658 191.78222314409177 1034.689249494114 206.3690533395847 1032.334326037162 220.95588353507765 1029.674816939175 234.62550735053895 1027.0153078411877 248.29513116600026 1024.2610941081402 261.0496721078041 1021.5068803750927 273.80421304960794 1017.9826540548474 286.5670706596386 1014.4584277346023 299.3299282696693 1010.6419493393781 310.87478095355755 1006.825470944154 322.4196336374458 1001.47440324696 336.11137296668846 996.123335549766 349.8031122959311 990.7241585707322 361.75042584178465 985.3249815916985 373.6977393876382 977.8928440256325 387.1848142734631 970.4607064595666 400.6718891592879 964.0841443856245 411.38916879337694 957.7075823116826 422.10644842746603 951.2562166738121 432.67670019507466 944.8048510359417 443.24695196268334 937.7122799184422 453.39493760381833 930.6197088009425 463.5429232449533 922.7996622667588 472.88088836304075 914.979615732575 482.2188534811283 903.339596021349 492.81215421681134 891.699576310123 503.4054549524944 881.3957071502763 510.86376652610227 871.0918379904296 518.3220780997101 858.5165879942276 526.6634911018201 845.9413379980258 535.0049041039301 831.7941066178173 543.215706510647 817.6468752376088 551.4265089173639 803.2576794157011 558.6038726123102 788.8684835937934 565.7812363072563 774.3767135020591 572.6274534172885 759.884943410325 579.4736705273207 746.0474310898071 585.9664781224456 732.2099187692891 592.4592857175704 720.3237881841756 597.2203895412465 708.437657599062 601.9814933649227 694.2452279525328 607.1679457924236 680.0527983060035 612.3543982199244 667.0020943206005 616.6883058945964 653.9513903351973 621.0222135692683 641.4493626507499 625.4172410360776 628.9473349663024 629.8122685028869 617.3033336193964 633.8456148190189 605.6593322724904 637.878961135151 593.3302402738913 640.0815231971064 581.0011482752922 642.2840852590617 566.9054611352193 642.0057544979081 552.8097739951464 641.7274237367545 545.1839613163947 629.7170025748591 537.558148637643 617.7065814129636 540.2781487389813 606.027655387056 542.9981488403196 594.3487293611485 547.2356049910582 582.6449848156267 551.4730611417966 570.9412402701049 556.8266986760079 558.0356639738345 562.1803362102194 545.1300876775641 569.5127580642427 531.4993880977364 576.8451799182661 517.8686885179087 583.7250022542191 506.2764952807236 590.6048245901723 494.68430204353854 593.3924250910511 490.30001572840916 596.18002559193 485.9157294132798 597.7648916374585 484.0735473178497 599.349757682987 482.23136522241964 601.3294442747524 480.8220120894622 603.3091308665176 479.4126589565047 605.5685785267913 478.5180464563255 607.8280261870648 477.62343395614636 610.2359157116717 477.29555700928904 612.6438052362787 476.9676800624317 615.0601899729147 477.22559489245293 617.4765747095507 477.4835097224741 619.7610142637891 478.3122263073348 622.0454538180276 479.14094289219554 624.0651764556421 480.4922961850466 626.0848990932568 481.8436494778977 627.7225184396532 483.6390987618656 629.3601377860496 485.4345480458335 630.5204753278718 487.5697417241752 631.6808128696941 489.7049354025168 632.2964297344935 492.05577591832537 632.9120465992928 494.4066164341339 632.9471631059623 496.8364728261768 632.9822796126319 499.2663292182197 632.4348547881542 501.6339781188251 631.8874299636765 504.0016270194305 630.7892801645708 506.1694605632517 629.6911303654649 508.33729410707286 622.0248984334282 520.5516369784718 614.3586665013917 532.7659798498709 607.3702682538703 544.3130287971367 600.3818700063489 555.8600777444025 594.215132164275 566.8296068654436 588.0483943222011 577.7991359864848 582.343659636698 588.6343609730957 576.6389249511948 599.4695859597067 571.6208628273242 610.7237941586811 566.6028007034537 621.9780023576554 577.8340590959904 617.0349922157372 589.0653174885271 612.091982073819 600.7925468638573 614.4810355063385 612.5197762391875 616.8700889388579 626.6981477861116 620.1882118098401 640.8765193330357 623.5063346808224 655.22089981256 626.9958670952994 669.5652802920844 630.4853995097764 683.9267112909265 633.5379540789058 698.2881422897688 636.5905086480352 711.7503584344504 639.472043182272 725.2125745791321 642.353577716509 736.8924116352307 645.2641016601674 748.5722486913293 648.1746256038257 755.6525537114906 650.115534625499 762.7328587316517 652.0564436471723 765.6962681794218 653.455025691831 768.6596776271921 654.8536077364896 771.0213691016517 657.1252240487748 773.3830605761112 659.3968403610601 774.8957643564582 662.3036521134271 776.4084681368053 665.2104638657942 776.9138037379223 668.4481271004464 777.4191393390395 671.6857903350987 776.864197990094 674.9153208567079 776.3092566411486 678.1448513783173 774.7521408478656 681.0281164887579 773.1950250545825 683.9113815991984 770.7987652515573 686.146502680299 768.402505448532 688.3816237613996 765.4179906696922 689.7345830459544 762.4334758908526 691.0875423305092 759.1731856213785 691.4166846242788 755.9128953519045 691.7458269180484 752.7181828436429 691.0166909359898 749.5234703353814 690.2875549539312 746.7288228312696 688.5764814258393 743.9341753271577 686.8654078977474 741.8321931585914 684.3515466736931 739.7302109900251 681.8376854496386 738.5409722449226 678.784238463375 737.3517334998202 675.7307914771113 737.1997517887223 672.457455434132 737.0477700776244 669.1841193911528 737.9489579258022 666.0336134392346 738.8501457739802 662.8831074873165 740.7101485758392 660.1852904312781 742.5701513776983 657.4874733752397 745.1942263488907 655.5248073730027 747.818301320083 653.5621413707657 750.9317071184365 652.540118070858 754.04511291679 651.5180947709503 757.3218751333576 651.5437202826599 760.5986373499252 651.5693457943697 763.695678115651 652.6399371198565 766.7927188813769 653.7105284453432 769.3857772105501 655.7139943902199 771.9788355397234 657.7174603350966 773.7964175407787 660.4440374860708 775.6139995418341 663.1706146370451 776.465803899466 666.3348296466636 777.3176082570977 669.499044656282 777.1144508302075 672.7696033777659 776.9112934033172 676.0401620992499 775.6744448281288 679.0746361711163 774.4375962529402 682.1091102429826 772.296554901772 684.5897894288837 770.1555135506037 687.0704686147848 767.334447018103 688.737625149121 764.5133804856024 690.4047816834573 761.3076551824114 691.083863836997 758.1019298792204 691.7629459905368 754.8471860908124 691.3828536825442 751.5924423024045 691.0027613745516 751.595363276256 691.0035969057901 751.5982842501073 691.0044324370285 744.7749950054058 688.995030265413 737.9517057607042 686.9856280937975 725.1280782057772 683.5404153855235 712.3044506508503 680.0952026772495 698.2903882407053 676.7326320295076 684.2763258305603 673.3700613817658 672.4189732748976 670.8692692079593 660.5616207192348 668.3684770341528 646.4266394273884 665.1706948775206 632.2916581355421 661.9729127208886 618.6437177968849 659.0626444548516 604.9957774582275 656.1523761888145 589.669693560291 653.2042005585488 574.3436096623544 650.256024928283 562.1572627384187 647.2695122743388 549.9709158144831 644.2829996203947 539.874908089231 636.9638888756584 529.7789003639788 629.6447781309222 530.4215984502064 616.3548480350177 531.064296536434 603.0649179391131 536.4206537130666 592.1254820070943 541.7770108896992 581.1860460750755 547.4913839905767 570.1660183909546 553.2057570914542 559.1459907068338 559.5289844837321 547.5735787354467 565.85221187601 536.0011667640596 572.7830787726566 523.9588954456704 579.7139456693031 511.9166241272811 587.9464251752793 498.9170146039502 596.1789046812555 485.9174050806193 597.7635865006505 484.07506450779584 599.3482683200453 482.2327239349724 601.3278139665993 480.8231728404029 603.307359613153 479.4136217458333 605.5667178008795 478.5187833053616 607.8260759886059 477.6239448648898 610.2339327134788 477.2958271307198 612.6417894383517 476.9677093965498 615.0581999543888 477.2253825868081 617.4746104704258 477.48305577706645 619.7591328849004 478.3115439138286 622.043655299375 479.14003205059066 624.0635130622201 480.49118336442154 626.0833708250651 481.8423346782525 627.7211697082014 483.63762019130877 629.3589685913378 485.432905704365 630.5195196467259 487.5679833382767 631.680070702114 489.70306097218844 632.2959226478864 492.0538399145564 632.9117745936588 494.40461885692434 632.9471340857917 496.8344717251673 632.9824935779245 499.26432459341027 632.4353055210736 501.63202822465973 631.8881174642225 503.99973185590926 630.7901844539615 506.167675203871 629.6922514437006 508.3356185518328 628.8601422018112 509.3698234692289 628.0280329599217 510.40402838662504 621.7482970868546 520.6950025184095 615.4685612137876 530.9859766501941 608.5066378168935 543.6935629908787 601.5447144199994 556.4011493315635 596.6688925119754 567.4005823454053 591.7930706039514 578.400015359247 583.6938601459078 590.3583898873138 575.5946496878643 602.3167644153806 588.8471197666249 599.9458725473891 602.0995898453857 597.5749806793975 613.6745257727828 593.3944159535176 625.2494617001797 589.2138512276376 636.7132096130264 585.7236382505663 648.176957525873 582.233425273495 661.4480277214236 577.8430125805252 674.7190979169743 573.4525998875554 688.4068019597746 568.6237086011847 702.0945060025748 563.7948173148142 713.6058278596918 559.0613317938585 725.1171497168086 554.3278462729029 739.1867551769401 547.5148120387882 753.2563606370716 540.7017778046736 767.4184170980739 533.8211886358695 781.580473559076 526.9405994670655 794.7461656520838 519.8585175850646 807.9118577450918 512.7764357030638 820.1542904038267 505.0104180309445 832.3967230625617 497.2444003588252 843.7609061190891 489.20906264838936 855.1250891756165 481.1737249379536 865.8613013877466 472.87137689541487 876.5975135998767 464.56902885287616 885.4714036068847 455.0271204217878 894.3452936138925 445.48521199069944 902.5082097409575 434.20884295738836 910.6711258680223 422.9324739240772 916.9641312482315 412.36010499929455 923.2571366284409 401.7877360745118 931.1711811214354 387.9535852404863 939.08522561443 374.11943440646075 945.0391134034699 362.51291861864644 950.9930011925097 350.9064028308321 955.7780425512194 339.86366480211046 960.563083909929 328.8209267733888 964.981318725395 316.91993001858515 969.399553540861 305.0189332637815 973.9849060028293 291.06444496975496 978.5702584647977 277.1099566757285 981.7947104901759 263.568953891639 985.0191625155542 250.02795110754948 987.6775682705369 237.13868344188677 990.3359740255196 224.24941577622408 992.7874823921668 210.88008981822105 995.238990758814 197.51076386021805 997.2398183417862 183.3907370766408 999.2406459247584 169.27071029306353 1000.9625318309202 156.54653481930035 1002.6844177370818 143.8223593455372 1004.1180390788447 130.49026267181665 1005.5516604206076 117.15816599809611 1006.6481947140057 104.95054671680434 1007.7447290074039 92.74292743551257 1009.2158383254754 78.65879550907567 1010.6869476435469 64.57466358263876 1011.9281929536883 50.0564696007656 1013.1694382638298 35.53827561889244 1013.8397068020016 22.567051468812398 1014.5099753401735 9.595827318732356 1023.9734425350646 7.588282615115359 1033.4369097299557 5.580737911498363 1033.4468994140625 5.5811920166015625 Z" fill="hsl(39, 100%, 89%)"></path></svg>